<?xml version="1.0"?>
<!DOCTYPE svg PUBLIC "-//W3C//DTD SVG 1.1//EN" "http://www.w3.org/Graphics/SVG/1.1/DTD/svg11.dtd">
<svg width="82.518mm" height="130.118mm" viewBox="0 0 82.518 130.118" xmlns="http://www.w3.org/2000/svg" version="1.1">
<g id="Sketch" transform="translate(0.809000,129.309000) scale(1,-1)">
<path id="Sketch_w0000"  d="M 0.0 128.5 L 80.9 128.5 L 80.9 0.0 L 0.0 0.0 L 0.0 128.5 " stroke="#000000" stroke-width="0.35 px" style="stroke-width:0.35;stroke-miterlimit:4;stroke-dasharray:none;stroke-linecap:square;fill:none;fill-opacity:1;fill-rule: evenodd"/>
<path id="Sketch_w0001"  d="M 6.5 4.5 A 1.5 1.5 0 0 1 6.5 1.5L 8.5 1.5 A 1.5 1.5 0 0 1 8.5 4.5L 6.5 4.5 " stroke="#000000" stroke-width="0.35 px" style="stroke-width:0.35;stroke-miterlimit:4;stroke-dasharray:none;stroke-linecap:square;fill:none;fill-opacity:1;fill-rule: evenodd"/>
<path id="Sketch_w0002"  d="M 6.5 127.0 A 1.5 1.5 0 0 1 6.5 124L 8.5 124.0 A 1.5 1.5 0 1 1 8.5 127L 6.5 127.0 " stroke="#000000" stroke-width="0.35 px" style="stroke-width:0.35;stroke-miterlimit:4;stroke-dasharray:none;stroke-linecap:square;fill:none;fill-opacity:1;fill-rule: evenodd"/>
<path id="Sketch_w0003"  d="M 72.4 4.5 A 1.5 1.5 0 0 1 72.4 1.5L 74.4 1.5 A 1.5 1.5 0 0 1 74.4 4.5L 72.4 4.5 " stroke="#000000" stroke-width="0.35 px" style="stroke-width:0.35;stroke-miterlimit:4;stroke-dasharray:none;stroke-linecap:square;fill:none;fill-opacity:1;fill-rule: evenodd"/>
<path id="Sketch_w0004"  d="M 72.4 127.0 A 1.5 1.5 0 0 1 72.4 124L 74.4 124.0 A 1.5 1.5 0 0 1 74.4 127L 72.4 127.0 " stroke="#000000" stroke-width="0.35 px" style="stroke-width:0.35;stroke-miterlimit:4;stroke-dasharray:none;stroke-linecap:square;fill:none;fill-opacity:1;fill-rule: evenodd"/>
<title>b'Sketch'</title>
</g>
</svg>