<?xml version="1.0" encoding="UTF-8" standalone="no"?>
<svg
   version="1.1"
   width="70.800003mm"
   height="128.50041mm"
   viewBox="0 0 70800001 1.2850041e+08"
   id="svg4826"
   sodipodi:docname="4 VCA V5.svg"
   inkscape:version="1.3.2 (1:1.3.2+202311252150+091e20ef0f)"
   xmlns:inkscape="http://www.inkscape.org/namespaces/inkscape"
   xmlns:sodipodi="http://sodipodi.sourceforge.net/DTD/sodipodi-0.dtd"
   xmlns="http://www.w3.org/2000/svg"
   xmlns:svg="http://www.w3.org/2000/svg"
   xmlns:rdf="http://www.w3.org/1999/02/22-rdf-syntax-ns#"
   xmlns:cc="http://creativecommons.org/ns#"
   xmlns:dc="http://purl.org/dc/elements/1.1/">
  <defs
     id="defs4830" />
  <sodipodi:namedview
     id="namedview4828"
     pagecolor="#ffffff"
     bordercolor="#666666"
     borderopacity="1.0"
     inkscape:showpageshadow="2"
     inkscape:pageopacity="0.0"
     inkscape:pagecheckerboard="0"
     inkscape:deskcolor="#d1d1d1"
     inkscape:document-units="mm"
     showgrid="false"
     inkscape:zoom="0.73416483"
     inkscape:cx="-133.48501"
     inkscape:cy="113.73468"
     inkscape:window-width="1680"
     inkscape:window-height="992"
     inkscape:window-x="0"
     inkscape:window-y="0"
     inkscape:window-maximized="1"
     inkscape:current-layer="svg4826"
     showguides="true"
     inkscape:document-rotation="0"
     inkscape:guide-bbox="true">
    <inkscape:grid
       type="xygrid"
       id="grid7832"
       units="mm"
       spacingx="999999.99"
       spacingy="999999.99"
       originx="-1.0687567e+08"
       originy="-58137358"
       visible="false" />
  </sodipodi:namedview>
  <title
     id="title2">SVG Picture created as 4 VCA V4-B_Silkscreen.svg date 2022/10/09 15:43:04 </title>
  <desc
     id="desc4">Picture generated by PCBNEW </desc>
  <g
     aria-label="-"
     transform="matrix(282222.23,0,0,282222.23,-38553805,-14029299)"
     id="flowRoot25912"
     style="font-weight:500;line-height:0.01%;font-family:'Atari ST 8x16 System Font';-inkscape-font-specification:'Atari ST 8x16 System Font Medium';letter-spacing:0px;word-spacing:0px;display:inline;stroke-width:1px">
    <path
       d="m 311.09375,112.20508 v -1.09375 h 3.28125 3.28125 v 1.09375 1.09375 h -3.28125 -3.28125 z"
       style="font-size:17.5px;line-height:1.25"
       id="path1846" />
  </g>
  <g
     aria-label="+"
     transform="matrix(282222.23,0,0,282222.23,-22553586,-14029299)"
     id="g997"
     style="font-weight:500;line-height:0.01%;font-family:'Atari ST 8x16 System Font';-inkscape-font-specification:'Atari ST 8x16 System Font Medium';letter-spacing:0px;word-spacing:0px;display:inline;stroke-width:1px">
    <path
       d="m 313.28125,109.4707 v -1.64062 h 1.09375 1.09375 v 1.64062 1.64063 h 1.09375 1.09375 v 1.09375 1.09375 h -1.09375 -1.09375 v 1.64062 1.64063 h -1.09375 -1.09375 v -1.64063 -1.64062 h -1.09375 -1.09375 v -1.09375 -1.09375 h 1.09375 1.09375 z"
       style="font-size:17.5px;line-height:1.25"
       id="path995" />
  </g>
  <g
     id="g4202"
     transform="matrix(282222.23,0,0,282222.23,-67738518,-141678920)">
    <path
       inkscape:connector-curvature="0"
       id="path4198"
       d="m 458.99064,658.24767 a 12.162053,12.162053 0 0 1 -12.16204,12.16206 12.162053,12.162053 0 0 1 -12.16207,-12.16206 12.162053,12.162053 0 0 1 12.16207,-12.16204 12.162053,12.162053 0 0 1 12.16204,12.16204 z"
       style="display:inline;fill:#fa00ff;fill-opacity:1;stroke:#000000;stroke-width:0.47905;stroke-miterlimit:4;stroke-dasharray:none;stroke-opacity:1" />
    <path
       id="path4200"
       style="stroke:#000000;stroke-width:0.140101"
       d="m 448.53019,658.24768 a 1.7016032,1.7016033 0 0 1 -1.70161,1.7016 1.7016032,1.7016033 0 0 1 -1.7016,-1.7016 1.7016032,1.7016033 0 0 1 1.7016,-1.7016 1.7016032,1.7016033 0 0 1 1.70161,1.7016 z" />
  </g>
  <path
     id="path4204"
     style="fill:#ffffff;stroke:#000000;stroke-width:100000;stroke-linecap:round"
     d="m 57450781,36418278 h 1750390 c 156680,0 282810,126133 282810,282812 0,156676 -126130,282809 -282810,282809 h -1750390 c -156680,0 -282810,-126133 -282810,-282809 0,-156679 126130,-282812 282810,-282812 z" />
  <path
     id="path4206"
     style="fill:#ffffff;stroke:#000000;stroke-width:100000;stroke-linecap:round"
     d="m 63052531,38023624 1274020,1200312 c 114040,107438 119350,285739 11910,399775 -107440,114038 -285740,119348 -399770,11909 l -1274020,-1200312 c -114040,-107441 -119350,-285737 -11910,-399775 107440,-114036 285740,-119350 399770,-11909 z" />
  <path
     id="path4208"
     style="fill:#ffffff;stroke:#000000;stroke-width:100000;stroke-linecap:round"
     d="m 53496491,38074036 -1219790,1255379 c -109190,112368 -106620,290729 5750,399912 112370,109184 290730,106620 399910,-5748 l 1219790,-1255379 c 109190,-112368 106620,-290729 -5750,-399914 -112360,-109182 -290730,-106618 -399910,5750 z" />
  <path
     id="path4210"
     style="fill:#ffffff;stroke:#000000;stroke-width:100000;stroke-linecap:round"
     d="m 50714861,44917843 v -1750390 c 0,-156680 126140,-282810 282820,-282810 156670,0 282810,126130 282810,282810 v 1750390 c 0,156680 -126140,282810 -282810,282810 -156680,0 -282820,-126130 -282820,-282810 z" />
  <path
     id="path4212"
     style="fill:#ffffff;stroke:#000000;stroke-width:100000;stroke-linecap:round"
     d="m 52347131,48901093 1216550,1258530 c 108890,112650 287250,115670 399900,6780 112650,-108890 115670,-287240 6780,-399900 l -1216550,-1258520 c -108890,-112650 -287240,-115680 -399890,-6790 -112650,108900 -115680,287250 -6790,399900 z" />
  <path
     id="path4214"
     style="fill:#ffffff;stroke:#000000;stroke-width:100000;stroke-linecap:round"
     d="m 66001741,43249993 -16860,1750310 c -1510,156670 -128860,281590 -285520,280080 -156680,-1510 -281590,-128850 -280080,-285530 l 16860,-1750300 c 1510,-156680 128860,-281590 285530,-280080 156670,1510 281580,128850 280070,285520 z" />
  <path
     id="path4216"
     style="fill:#ffffff;stroke:#000000;stroke-width:100000;stroke-linecap:round"
     d="m 62767941,49663933 1264660,-1210160 c 113200,-108320 291540,-104400 399860,8800 108320,113200 104390,291540 -8810,399860 l -1264670,1210160 c -113200,108320 -291530,104390 -399850,-8810 -108320,-113190 -104400,-291530 8810,-399850 z" />
  <g
     id="g4228"
     transform="matrix(282222.23,0,0,282222.23,-67719018,-159684200)">
    <path
       inkscape:connector-curvature="0"
       id="path4224"
       d="m 458.99064,658.24767 a 12.162053,12.162053 0 0 1 -12.16204,12.16206 12.162053,12.162053 0 0 1 -12.16207,-12.16206 12.162053,12.162053 0 0 1 12.16207,-12.16204 12.162053,12.162053 0 0 1 12.16204,12.16204 z"
       style="display:inline;fill:#fa00ff;fill-opacity:1;stroke:#000000;stroke-width:0.47905;stroke-miterlimit:4;stroke-dasharray:none;stroke-opacity:1" />
    <path
       id="path4226"
       style="stroke:#000000;stroke-width:0.140101"
       d="m 448.53019,658.24768 a 1.7016032,1.7016033 0 0 1 -1.70161,1.7016 1.7016032,1.7016033 0 0 1 -1.7016,-1.7016 1.7016032,1.7016033 0 0 1 1.7016,-1.7016 1.7016032,1.7016033 0 0 1 1.70161,1.7016 z" />
  </g>
  <path
     id="path4230"
     style="fill:#ffffff;stroke:#000000;stroke-width:100000;stroke-linecap:round"
     d="m 57470281,18412998 h 1750390 c 156680,0 282810,126133 282810,282812 0,156676 -126130,282809 -282810,282809 h -1750390 c -156680,0 -282810,-126133 -282810,-282809 0,-156679 126130,-282812 282810,-282812 z" />
  <path
     id="path4232"
     style="fill:#ffffff;stroke:#000000;stroke-width:100000;stroke-linecap:round"
     d="m 63072031,20018344 1274020,1200312 c 114040,107438 119350,285739 11910,399775 -107440,114038 -285740,119348 -399770,11909 l -1274020,-1200312 c -114040,-107441 -119350,-285737 -11910,-399775 107440,-114036 285740,-119350 399770,-11909 z" />
  <path
     id="path4234"
     style="fill:#ffffff;stroke:#000000;stroke-width:100000;stroke-linecap:round"
     d="m 53515991,20068756 -1219790,1255379 c -109190,112368 -106620,290729 5750,399912 112370,109184 290730,106620 399910,-5748 l 1219790,-1255379 c 109190,-112368 106620,-290729 -5750,-399914 -112360,-109182 -290730,-106618 -399910,5750 z" />
  <path
     id="path4236"
     style="fill:#ffffff;stroke:#000000;stroke-width:100000;stroke-linecap:round"
     d="m 50734361,26912563 v -1750390 c 0,-156678 126140,-282812 282820,-282812 156670,0 282810,126134 282810,282812 v 1750390 c 0,156679 -126140,282812 -282810,282812 -156680,0 -282820,-126133 -282820,-282812 z" />
  <path
     id="path4238"
     style="fill:#ffffff;stroke:#000000;stroke-width:100000;stroke-linecap:round"
     d="m 52366631,30895813 1216550,1258528 c 108890,112651 287250,115675 399900,6781 112650,-108891 115670,-287244 6780,-399895 l -1216550,-1258528 c -108890,-112650 -287240,-115675 -399890,-6783 -112650,108893 -115680,287247 -6790,399897 z" />
  <path
     id="path4240"
     style="fill:#ffffff;stroke:#000000;stroke-width:100000;stroke-linecap:round"
     d="m 66021241,25244717 -16860,1750309 c -1510,156671 -128860,281583 -285520,280074 -156680,-1509 -281590,-128852 -280080,-285523 l 16860,-1750309 c 1510,-156672 128860,-281584 285530,-280075 156670,1510 281580,128852 280070,285524 z" />
  <path
     id="path4242"
     style="fill:#ffffff;stroke:#000000;stroke-width:100000;stroke-linecap:round"
     d="m 62787441,31658649 1264660,-1210158 c 113200,-108322 291540,-104395 399860,8804 108320,113199 104390,291536 -8810,399858 l -1264670,1210159 c -113200,108322 -291530,104394 -399850,-8805 -108320,-113199 -104400,-291536 8810,-399858 z" />
  <g
     style="fill:#000000;fill-opacity:1;stroke:#000000;stroke-linecap:round;stroke-linejoin:round;stroke-opacity:1"
     id="g6"
     transform="translate(-106875680,-58137357)" />
  <g
     style="fill:#000000;fill-opacity:0;stroke:#000000;stroke-width:0;stroke-linecap:round;stroke-linejoin:round;stroke-opacity:1"
     id="g8"
     transform="translate(-106875680,-58137357)" />
  <g
     style="fill:#000000;fill-opacity:0;stroke:#000000;stroke-width:21200;stroke-linecap:round;stroke-linejoin:round;stroke-opacity:1"
     id="g10"
     transform="translate(-106875680,-58137357)" />
  <g
     style="fill:#000000;fill-opacity:0;stroke:#000000;stroke-width:21200;stroke-linecap:round;stroke-linejoin:round;stroke-opacity:1"
     id="g16"
     transform="translate(-106875680,-58137357)" />
  <g
     style="fill:#000000;fill-opacity:0;stroke:#000000;stroke-width:21200;stroke-linecap:round;stroke-linejoin:round;stroke-opacity:1"
     id="g22"
     transform="translate(-106875680,-58137357)" />
  <g
     style="fill:#000000;fill-opacity:0;stroke:#000000;stroke-width:21200;stroke-linecap:round;stroke-linejoin:round;stroke-opacity:1"
     id="g28"
     transform="translate(-106875680,-58137357)" />
  <g
     style="fill:#000000;fill-opacity:0;stroke:#000000;stroke-width:21200;stroke-linecap:round;stroke-linejoin:round;stroke-opacity:1"
     id="g34"
     transform="translate(-106875680,-58137357)" />
  <g
     style="fill:#000000;fill-opacity:0;stroke:#000000;stroke-width:21200;stroke-linecap:round;stroke-linejoin:round;stroke-opacity:1"
     id="g40"
     transform="translate(-106875680,-58137357)" />
  <g
     style="fill:#000000;fill-opacity:0;stroke:#000000;stroke-width:21200;stroke-linecap:round;stroke-linejoin:round;stroke-opacity:1"
     id="g46"
     transform="translate(-106875680,-58137357)" />
  <g
     style="fill:#000000;fill-opacity:0;stroke:#000000;stroke-width:21200;stroke-linecap:round;stroke-linejoin:round;stroke-opacity:1"
     id="g52"
     transform="translate(-106875680,-58137357)" />
  <g
     style="fill:#000000;fill-opacity:0;stroke:#000000;stroke-width:21200;stroke-linecap:round;stroke-linejoin:round;stroke-opacity:1"
     id="g58"
     transform="translate(-106875680,-58137357)" />
  <g
     style="fill:#000000;fill-opacity:0;stroke:#000000;stroke-width:21200;stroke-linecap:round;stroke-linejoin:round;stroke-opacity:1"
     id="g64"
     transform="translate(-106875680,-58137357)" />
  <g
     style="fill:#000000;fill-opacity:0;stroke:#000000;stroke-width:21200;stroke-linecap:round;stroke-linejoin:round;stroke-opacity:1"
     id="g70"
     transform="translate(-106875680,-58137357)" />
  <g
     style="fill:#000000;fill-opacity:0;stroke:#000000;stroke-width:21200;stroke-linecap:round;stroke-linejoin:round;stroke-opacity:1"
     id="g84"
     transform="translate(-106875680,-58137357)" />
  <g
     style="fill:#000000;fill-opacity:0;stroke:#000000;stroke-width:21200;stroke-linecap:round;stroke-linejoin:round;stroke-opacity:1"
     id="g96"
     transform="translate(-106875680,-58137357)" />
  <g
     style="fill:#000000;fill-opacity:0;stroke:#000000;stroke-width:21200;stroke-linecap:round;stroke-linejoin:round;stroke-opacity:1"
     id="g108"
     transform="translate(-106875680,-58137357)" />
  <g
     style="fill:#000000;fill-opacity:0;stroke:#000000;stroke-width:21200;stroke-linecap:round;stroke-linejoin:round;stroke-opacity:1"
     id="g122"
     transform="translate(-106875680,-58137357)" />
  <g
     style="fill:#000000;fill-opacity:0;stroke:#000000;stroke-width:21200;stroke-linecap:round;stroke-linejoin:round;stroke-opacity:1"
     id="g134"
     transform="translate(-106875680,-58137357)" />
  <g
     style="fill:#000000;fill-opacity:0;stroke:#000000;stroke-width:21200;stroke-linecap:round;stroke-linejoin:round;stroke-opacity:1"
     id="g146"
     transform="translate(-106875680,-58137357)" />
  <g
     style="fill:#000000;fill-opacity:0;stroke:#000000;stroke-width:21200;stroke-linecap:round;stroke-linejoin:round;stroke-opacity:1"
     id="g158"
     transform="translate(-106875680,-58137357)" />
  <g
     style="fill:#000000;fill-opacity:0;stroke:#000000;stroke-width:21200;stroke-linecap:round;stroke-linejoin:round;stroke-opacity:1"
     id="g170"
     transform="translate(-106875680,-58137357)" />
  <g
     style="fill:#000000;fill-opacity:0;stroke:#000000;stroke-width:21200;stroke-linecap:round;stroke-linejoin:round;stroke-opacity:1"
     id="g176"
     transform="translate(-106875680,-58137357)" />
  <g
     style="fill:#000000;fill-opacity:0;stroke:#000000;stroke-width:21200;stroke-linecap:round;stroke-linejoin:round;stroke-opacity:1"
     id="g182"
     transform="translate(-106875680,-58137357)" />
  <g
     style="fill:#000000;fill-opacity:0;stroke:#000000;stroke-width:21200;stroke-linecap:round;stroke-linejoin:round;stroke-opacity:1"
     id="g188"
     transform="translate(-106875680,-58137357)" />
  <g
     style="fill:#000000;fill-opacity:0;stroke:#000000;stroke-width:21200;stroke-linecap:round;stroke-linejoin:round;stroke-opacity:1"
     id="g194"
     transform="translate(-106875680,-58137357)" />
  <g
     style="fill:#000000;fill-opacity:0;stroke:#000000;stroke-width:21200;stroke-linecap:round;stroke-linejoin:round;stroke-opacity:1"
     id="g200"
     transform="translate(-106875680,-58137357)" />
  <g
     style="fill:#000000;fill-opacity:0;stroke:#000000;stroke-width:21200;stroke-linecap:round;stroke-linejoin:round;stroke-opacity:1"
     id="g206"
     transform="translate(-106875680,-58137357)" />
  <g
     style="fill:#000000;fill-opacity:0;stroke:#000000;stroke-width:21200;stroke-linecap:round;stroke-linejoin:round;stroke-opacity:1"
     id="g212"
     transform="translate(-106875680,-58137357)" />
  <g
     style="fill:#000000;fill-opacity:0;stroke:#000000;stroke-width:21200;stroke-linecap:round;stroke-linejoin:round;stroke-opacity:1"
     id="g226"
     transform="translate(-106875680,-58137357)" />
  <g
     style="fill:#000000;fill-opacity:0;stroke:#000000;stroke-width:21200;stroke-linecap:round;stroke-linejoin:round;stroke-opacity:1"
     id="g238"
     transform="translate(-106875680,-58137357)" />
  <g
     style="fill:#000000;fill-opacity:0;stroke:#000000;stroke-width:21200;stroke-linecap:round;stroke-linejoin:round;stroke-opacity:1"
     id="g250"
     transform="translate(-106875680,-58137357)" />
  <g
     style="fill:#000000;fill-opacity:0;stroke:#000000;stroke-width:21200;stroke-linecap:round;stroke-linejoin:round;stroke-opacity:1"
     id="g264"
     transform="translate(-106875680,-58137357)" />
  <g
     style="fill:#000000;fill-opacity:0;stroke:#000000;stroke-width:21200;stroke-linecap:round;stroke-linejoin:round;stroke-opacity:1"
     id="g276"
     transform="translate(-106875680,-58137357)" />
  <g
     style="fill:#000000;fill-opacity:0;stroke:#000000;stroke-width:21200;stroke-linecap:round;stroke-linejoin:round;stroke-opacity:1"
     id="g288"
     transform="translate(-106875680,-58137357)" />
  <g
     style="fill:#000000;fill-opacity:0;stroke:#000000;stroke-width:21200;stroke-linecap:round;stroke-linejoin:round;stroke-opacity:1"
     id="g300"
     transform="translate(-106875680,-58137357)" />
  <g
     style="fill:#000000;fill-opacity:0;stroke:#000000;stroke-width:21200;stroke-linecap:round;stroke-linejoin:round;stroke-opacity:1"
     id="g312"
     transform="translate(-106875680,-58137357)" />
  <g
     style="fill:#000000;fill-opacity:0;stroke:#000000;stroke-width:21200;stroke-linecap:round;stroke-linejoin:round;stroke-opacity:1"
     id="g318"
     transform="translate(-106875680,-58137357)" />
  <g
     style="fill:#000000;fill-opacity:0;stroke:#000000;stroke-width:21200;stroke-linecap:round;stroke-linejoin:round;stroke-opacity:1"
     id="g324"
     transform="translate(-106875680,-58137357)" />
  <g
     style="fill:#000000;fill-opacity:0;stroke:#000000;stroke-width:21200;stroke-linecap:round;stroke-linejoin:round;stroke-opacity:1"
     id="g330"
     transform="translate(-106875680,-58137357)" />
  <g
     style="fill:#000000;fill-opacity:0;stroke:#000000;stroke-width:21200;stroke-linecap:round;stroke-linejoin:round;stroke-opacity:1"
     id="g336"
     transform="translate(-106875680,-58137357)" />
  <g
     style="fill:#000000;fill-opacity:0;stroke:#000000;stroke-width:21200;stroke-linecap:round;stroke-linejoin:round;stroke-opacity:1"
     id="g342"
     transform="translate(-106875680,-58137357)" />
  <g
     style="fill:#000000;fill-opacity:0;stroke:#000000;stroke-width:21200;stroke-linecap:round;stroke-linejoin:round;stroke-opacity:1"
     id="g356"
     transform="translate(-106875680,-58137357)" />
  <g
     style="fill:#000000;fill-opacity:0;stroke:#000000;stroke-width:21200;stroke-linecap:round;stroke-linejoin:round;stroke-opacity:1"
     id="g368"
     transform="translate(-106875680,-58137357)" />
  <g
     style="fill:#000000;fill-opacity:0;stroke:#000000;stroke-width:21200;stroke-linecap:round;stroke-linejoin:round;stroke-opacity:1"
     id="g380"
     transform="translate(-106875680,-58137357)" />
  <g
     style="fill:#000000;fill-opacity:0;stroke:#000000;stroke-width:21200;stroke-linecap:round;stroke-linejoin:round;stroke-opacity:1"
     id="g392"
     transform="translate(-106875680,-58137357)" />
  <g
     style="fill:#000000;fill-opacity:0;stroke:#000000;stroke-width:21200;stroke-linecap:round;stroke-linejoin:round;stroke-opacity:1"
     id="g406"
     transform="translate(-106875680,-58137357)" />
  <g
     style="fill:#000000;fill-opacity:0;stroke:#000000;stroke-width:21200;stroke-linecap:round;stroke-linejoin:round;stroke-opacity:1"
     id="g420"
     transform="translate(-106875680,-58137357)" />
  <g
     style="fill:#000000;fill-opacity:0;stroke:#000000;stroke-width:21200;stroke-linecap:round;stroke-linejoin:round;stroke-opacity:1"
     id="g426"
     transform="translate(-106875680,-58137357)" />
  <g
     style="fill:#000000;fill-opacity:0;stroke:#000000;stroke-width:21200;stroke-linecap:round;stroke-linejoin:round;stroke-opacity:1"
     id="g432"
     transform="translate(-106875680,-58137357)" />
  <g
     style="fill:#000000;fill-opacity:0;stroke:#000000;stroke-width:21200;stroke-linecap:round;stroke-linejoin:round;stroke-opacity:1"
     id="g438"
     transform="translate(-106875680,-58137357)" />
  <g
     style="fill:#000000;fill-opacity:0;stroke:#000000;stroke-width:21200;stroke-linecap:round;stroke-linejoin:round;stroke-opacity:1"
     id="g444"
     transform="translate(-106875680,-58137357)" />
  <g
     style="fill:#000000;fill-opacity:0;stroke:#000000;stroke-width:21200;stroke-linecap:round;stroke-linejoin:round;stroke-opacity:1"
     id="g450"
     transform="translate(-106875680,-58137357)" />
  <g
     style="fill:#000000;fill-opacity:0;stroke:#000000;stroke-width:21200;stroke-linecap:round;stroke-linejoin:round;stroke-opacity:1"
     id="g464"
     transform="translate(-106875680,-58137357)" />
  <g
     style="fill:#000000;fill-opacity:0;stroke:#000000;stroke-width:21200;stroke-linecap:round;stroke-linejoin:round;stroke-opacity:1"
     id="g476"
     transform="translate(-106875680,-58137357)" />
  <g
     style="fill:#000000;fill-opacity:0;stroke:#000000;stroke-width:21200;stroke-linecap:round;stroke-linejoin:round;stroke-opacity:1"
     id="g488"
     transform="translate(-106875680,-58137357)" />
  <g
     style="fill:#000000;fill-opacity:0;stroke:#000000;stroke-width:21200;stroke-linecap:round;stroke-linejoin:round;stroke-opacity:1"
     id="g500"
     transform="translate(-106875680,-58137357)" />
  <g
     style="fill:#000000;fill-opacity:0;stroke:#000000;stroke-width:21200;stroke-linecap:round;stroke-linejoin:round;stroke-opacity:1"
     id="g514"
     transform="translate(-106875680,-58137357)" />
  <g
     style="fill:#000000;fill-opacity:0;stroke:#000000;stroke-width:21200;stroke-linecap:round;stroke-linejoin:round;stroke-opacity:1"
     id="g528"
     transform="translate(-106875680,-58137357)" />
  <g
     style="fill:#000000;fill-opacity:0;stroke:#000000;stroke-width:21200;stroke-linecap:round;stroke-linejoin:round;stroke-opacity:1"
     id="g580"
     transform="translate(-106875680,-58137357)" />
  <g
     style="fill:#000000;fill-opacity:0;stroke:#000000;stroke-width:21200;stroke-linecap:round;stroke-linejoin:round;stroke-opacity:1"
     id="g586"
     transform="translate(-106875680,-58137357)" />
  <g
     style="fill:#000000;fill-opacity:0;stroke:#000000;stroke-width:21200;stroke-linecap:round;stroke-linejoin:round;stroke-opacity:1"
     id="g752"
     transform="translate(-106875680,-58137357)" />
  <g
     style="fill:#000000;fill-opacity:0;stroke:#000000;stroke-width:21200;stroke-linecap:round;stroke-linejoin:round;stroke-opacity:1"
     id="g758"
     transform="translate(-106875680,-58137357)" />
  <g
     style="fill:#000000;fill-opacity:0;stroke:#000000;stroke-width:21200;stroke-linecap:round;stroke-linejoin:round;stroke-opacity:1"
     id="g786"
     transform="translate(-106875680,-58137357)" />
  <g
     style="fill:#000000;fill-opacity:0;stroke:#000000;stroke-width:21200;stroke-linecap:round;stroke-linejoin:round;stroke-opacity:1"
     id="g816"
     transform="translate(-106875680,-58137357)" />
  <g
     style="fill:#000000;fill-opacity:0;stroke:#000000;stroke-width:21200;stroke-linecap:round;stroke-linejoin:round;stroke-opacity:1"
     id="g846"
     transform="translate(-106875680,-58137357)" />
  <g
     style="fill:#000000;fill-opacity:0;stroke:#000000;stroke-width:21200;stroke-linecap:round;stroke-linejoin:round;stroke-opacity:1"
     id="g852"
     transform="translate(-106875680,-58137357)" />
  <g
     style="fill:#000000;fill-opacity:0;stroke:#000000;stroke-width:21200;stroke-linecap:round;stroke-linejoin:round;stroke-opacity:1"
     id="g894"
     transform="translate(-106875680,-58137357)" />
  <g
     style="fill:#000000;fill-opacity:0;stroke:#000000;stroke-width:21200;stroke-linecap:round;stroke-linejoin:round;stroke-opacity:1"
     id="g972"
     transform="translate(-106875680,-58137357)" />
  <g
     style="fill:#000000;fill-opacity:0;stroke:#000000;stroke-width:21200;stroke-linecap:round;stroke-linejoin:round;stroke-opacity:1"
     id="g978"
     transform="translate(-106875680,-58137357)" />
  <g
     style="fill:#000000;fill-opacity:0;stroke:#000000;stroke-width:21200;stroke-linecap:round;stroke-linejoin:round;stroke-opacity:1"
     id="g1006"
     transform="translate(-106875680,-58137357)" />
  <g
     style="fill:#000000;fill-opacity:0;stroke:#000000;stroke-width:21200;stroke-linecap:round;stroke-linejoin:round;stroke-opacity:1"
     id="g1042"
     transform="translate(-106875680,-58137357)" />
  <g
     style="fill:#000000;fill-opacity:0;stroke:#000000;stroke-width:21200;stroke-linecap:round;stroke-linejoin:round;stroke-opacity:1"
     id="g1090"
     transform="translate(-106875680,-58137357)" />
  <g
     style="fill:#000000;fill-opacity:0;stroke:#000000;stroke-width:21200;stroke-linecap:round;stroke-linejoin:round;stroke-opacity:1"
     id="g1158"
     transform="translate(-106875680,-58137357)" />
  <g
     style="fill:#000000;fill-opacity:0;stroke:#000000;stroke-width:150000;stroke-linecap:round;stroke-linejoin:round;stroke-opacity:1"
     id="g1166"
     transform="translate(-106875680,-58137357)">
    <g
       id="text1160"
       style="font-size:2e+06px;opacity:0" />
    <g
       class="stroked-text"
       id="g1164">
      <desc
         id="desc1162" />
    </g>
  </g>
  <g
     style="fill:#000000;fill-opacity:0;stroke:#000000;stroke-width:21200;stroke-linecap:round;stroke-linejoin:round;stroke-opacity:1"
     id="g1168"
     transform="translate(-106875680,-58137357)" />
  <g
     style="fill:#000000;fill-opacity:0;stroke:#000000;stroke-width:150000;stroke-linecap:round;stroke-linejoin:round;stroke-opacity:1"
     id="g1176"
     transform="translate(-106875680,-58137357)">
    <g
       id="text1170"
       style="font-size:2e+06px;opacity:0" />
    <g
       class="stroked-text"
       id="g1174">
      <desc
         id="desc1172" />
    </g>
  </g>
  <g
     style="fill:#000000;fill-opacity:0;stroke:#000000;stroke-width:21200;stroke-linecap:round;stroke-linejoin:round;stroke-opacity:1"
     id="g1178"
     transform="translate(-106875680,-58137357)" />
  <g
     style="fill:#000000;fill-opacity:0;stroke:#000000;stroke-width:21200;stroke-linecap:round;stroke-linejoin:round;stroke-opacity:1"
     id="g1184"
     transform="translate(-106875680,-58137357)" />
  <g
     style="fill:#000000;fill-opacity:0;stroke:#000000;stroke-width:120000;stroke-linecap:round;stroke-linejoin:round;stroke-opacity:1"
     id="g4604"
     transform="translate(-106875680,-58137357)" />
  <g
     style="fill:#c2c200;fill-opacity:0;stroke:#c2c200;stroke-width:120000;stroke-linecap:round;stroke-linejoin:round;stroke-opacity:1"
     id="g4606"
     transform="translate(-106875680,-58137357)" />
  <metadata
     id="metadata8782">
    <rdf:RDF>
      <cc:Work
         rdf:about="">
        <dc:title>SVG Picture created as 4 VCA V4-B_Silkscreen.svg date 2022/10/09 15:43:04 </dc:title>
        <dc:format>image/svg+xml</dc:format>
        <dc:type
           rdf:resource="http://purl.org/dc/dcmitype/StillImage" />
      </cc:Work>
    </rdf:RDF>
  </metadata>
  <g
     id="g1557"
     transform="matrix(282222.23,0,0,282222.23,-67719018,-103621400)">
    <path
       inkscape:connector-curvature="0"
       id="path1553"
       d="m 458.99064,658.24767 a 12.162053,12.162053 0 0 1 -12.16204,12.16206 12.162053,12.162053 0 0 1 -12.16207,-12.16206 12.162053,12.162053 0 0 1 12.16207,-12.16204 12.162053,12.162053 0 0 1 12.16204,12.16204 z"
       style="display:inline;fill:#fa00ff;fill-opacity:1;stroke:#000000;stroke-width:0.47905;stroke-miterlimit:4;stroke-dasharray:none;stroke-opacity:1" />
    <path
       id="ellipse1555"
       style="stroke:#000000;stroke-width:0.140101"
       d="m 448.53019,658.24768 a 1.7016032,1.7016033 0 0 1 -1.70161,1.7016 1.7016032,1.7016033 0 0 1 -1.7016,-1.7016 1.7016032,1.7016033 0 0 1 1.7016,-1.7016 1.7016032,1.7016033 0 0 1 1.70161,1.7016 z" />
  </g>
  <path
     id="rect1559"
     style="fill:#ffffff;stroke:#000000;stroke-width:100000;stroke-linecap:round"
     d="m 57470281,74475804 h 1750390 c 156680,0 282810,126130 282810,282810 0,156670 -126130,282810 -282810,282810 h -1750390 c -156680,0 -282810,-126140 -282810,-282810 0,-156680 126130,-282810 282810,-282810 z" />
  <path
     id="rect1561"
     style="fill:#ffffff;stroke:#000000;stroke-width:100000;stroke-linecap:round"
     d="m 63072031,76081144 1274020,1200310 c 114040,107440 119350,285740 11910,399780 -107440,114040 -285740,119350 -399770,11910 l -1274020,-1200310 c -114040,-107450 -119350,-285740 -11910,-399780 107440,-114040 285740,-119350 399770,-11910 z" />
  <path
     id="rect1563"
     style="fill:#ffffff;stroke:#000000;stroke-width:100000;stroke-linecap:round"
     d="m 53515991,76131554 -1219790,1255380 c -109190,112370 -106620,290730 5750,399910 112370,109190 290730,106620 399910,-5740 l 1219790,-1255380 c 109190,-112370 106620,-290730 -5750,-399920 -112360,-109180 -290730,-106610 -399910,5750 z" />
  <path
     id="rect1565"
     style="fill:#ffffff;stroke:#000000;stroke-width:100000;stroke-linecap:round"
     d="m 50734361,82975364 v -1750390 c 0,-156680 126140,-282810 282820,-282810 156670,0 282810,126130 282810,282810 v 1750390 c 0,156680 -126140,282810 -282810,282810 -156680,0 -282820,-126130 -282820,-282810 z" />
  <path
     id="rect1567"
     style="fill:#ffffff;stroke:#000000;stroke-width:100000;stroke-linecap:round"
     d="m 52366631,86958614 1216550,1258530 c 108890,112650 287250,115670 399900,6780 112650,-108890 115670,-287240 6780,-399900 l -1216550,-1258520 c -108890,-112650 -287240,-115680 -399890,-6790 -112650,108900 -115680,287250 -6790,399900 z" />
  <path
     id="rect1569"
     style="fill:#ffffff;stroke:#000000;stroke-width:100000;stroke-linecap:round"
     d="m 66021241,81307514 -16860,1750310 c -1510,156670 -128860,281590 -285520,280080 -156680,-1510 -281590,-128850 -280080,-285530 l 16860,-1750300 c 1510,-156680 128860,-281590 285530,-280080 156670,1510 281580,128850 280070,285520 z" />
  <path
     id="rect1571"
     style="fill:#ffffff;stroke:#000000;stroke-width:100000;stroke-linecap:round"
     d="m 62787441,87721454 1264660,-1210160 c 113200,-108320 291540,-104400 399860,8800 108320,113200 104390,291540 -8810,399860 l -1264670,1210160 c -113200,108320 -291530,104390 -399850,-8810 -108320,-113190 -104400,-291530 8810,-399850 z" />
  <g
     id="g1531"
     transform="matrix(282222.23,0,0,282222.23,-67735567,-122685020)">
    <path
       inkscape:connector-curvature="0"
       id="path1527"
       d="m 458.99064,658.24767 a 12.162053,12.162053 0 0 1 -12.16204,12.16206 12.162053,12.162053 0 0 1 -12.16207,-12.16206 12.162053,12.162053 0 0 1 12.16207,-12.16204 12.162053,12.162053 0 0 1 12.16204,12.16204 z"
       style="display:inline;fill:#fa00ff;fill-opacity:1;stroke:#000000;stroke-width:0.47905;stroke-miterlimit:4;stroke-dasharray:none;stroke-opacity:1" />
    <path
       id="ellipse1529"
       style="stroke:#000000;stroke-width:0.140101"
       d="m 448.53019,658.24768 a 1.7016032,1.7016033 0 0 1 -1.70161,1.7016 1.7016032,1.7016033 0 0 1 -1.7016,-1.7016 1.7016032,1.7016033 0 0 1 1.7016,-1.7016 1.7016032,1.7016033 0 0 1 1.70161,1.7016 z" />
  </g>
  <path
     id="rect1533"
     style="fill:#ffffff;stroke:#000000;stroke-width:100000;stroke-linecap:round"
     d="m 57453731,55412183 h 1750390 c 156680,0 282810,126130 282810,282810 0,156670 -126130,282810 -282810,282810 h -1750390 c -156680,0 -282810,-126140 -282810,-282810 0,-156680 126130,-282810 282810,-282810 z" />
  <path
     id="rect1535"
     style="fill:#ffffff;stroke:#000000;stroke-width:100000;stroke-linecap:round"
     d="m 63055491,57017523 1274020,1200310 c 114030,107440 119340,285740 11900,399780 -107440,114040 -285730,119350 -399770,11910 l -1274020,-1200310 c -114040,-107450 -119350,-285740 -11910,-399780 107440,-114040 285740,-119350 399780,-11910 z" />
  <path
     id="rect1537"
     style="fill:#ffffff;stroke:#000000;stroke-width:100000;stroke-linecap:round"
     d="m 53499441,57067933 -1219790,1255380 c -109180,112370 -106620,290730 5750,399910 112370,109190 290730,106620 399910,-5740 l 1219800,-1255380 c 109180,-112370 106610,-290730 -5760,-399920 -112360,-109180 -290730,-106610 -399910,5750 z" />
  <path
     id="rect1539"
     style="fill:#ffffff;stroke:#000000;stroke-width:100000;stroke-linecap:round"
     d="m 50717821,63911743 v -1750390 c 0,-156680 126130,-282810 282810,-282810 156670,0 282810,126130 282810,282810 v 1750390 c 0,156680 -126140,282810 -282810,282810 -156680,0 -282810,-126130 -282810,-282810 z" />
  <path
     id="rect1541"
     style="fill:#ffffff;stroke:#000000;stroke-width:100000;stroke-linecap:round"
     d="m 52350081,67894994 1216550,1258530 c 108890,112650 287250,115670 399900,6780 112650,-108890 115670,-287240 6780,-399900 l -1216540,-1258520 c -108900,-112650 -287250,-115680 -399900,-6790 -112650,108900 -115680,287250 -6790,399900 z" />
  <path
     id="rect1543"
     style="fill:#ffffff;stroke:#000000;stroke-width:100000;stroke-linecap:round"
     d="m 66004691,62243893 -16860,1750310 c -1510,156670 -128850,281590 -285520,280080 -156670,-1510 -281590,-128850 -280080,-285530 l 16860,-1750300 c 1510,-156680 128860,-281590 285530,-280080 156670,1510 281580,128850 280070,285520 z" />
  <path
     id="rect1545"
     style="fill:#ffffff;stroke:#000000;stroke-width:100000;stroke-linecap:round"
     d="m 62770891,68657834 1264660,-1210160 c 113200,-108320 291540,-104400 399860,8800 108320,113200 104390,291540 -8810,399860 l -1264660,1210160 c -113210,108320 -291540,104390 -399860,-8810 -108320,-113190 -104390,-291530 8810,-399850 z" />
  <path
     id="circle4024"
     style="fill:#840084;fill-opacity:0;stroke:#840084;stroke-width:120000;stroke-linecap:round;stroke-linejoin:round"
     d="m 57491231,101930140 a 1800000,1800000 0 0 0 1800000,1800000 1800000,1800000 0 0 0 1800000,-1800000 1800000,1800000 0 0 0 -1800000,-1800000 1800000,1800000 0 0 0 -1800000,1800000 z" />
  <path
     style="display:inline;fill:#000080;fill-opacity:1;stroke:#000000;stroke-width:228565;stroke-miterlimit:4;stroke-dasharray:none;stroke-opacity:1"
     d="m 53661031,92830954 h 11260410 v 14767036 H 53661031 Z"
     id="path18185"
     inkscape:connector-curvature="0" />
  <path
     style="display:inline;fill:#00ff00;fill-opacity:1;stroke:#000000;stroke-width:116000;stroke-miterlimit:4;stroke-dasharray:none;stroke-opacity:1"
     d="m 62233291,101930150 a 2942057,2942057 0 0 1 -2942060,2942050 2942057,2942057 0 0 1 -2942050,-2942050 2942057,2942057 0 0 1 2942050,-2942056 2942057,2942057 0 0 1 2942060,2942056 z"
     id="path18187"
     inkscape:connector-curvature="0" />
  <path
     id="ellipse18189"
     style="display:inline;stroke:#000000;stroke-width:39539.6"
     d="m 59771461,101930140 a 480230.25,480230.28 0 0 1 -480230,480230 480230.25,480230.28 0 0 1 -480230,-480230 480230.25,480230.28 0 0 1 480230,-480230 480230.25,480230.28 0 0 1 480230,480230 z" />
  <g
     aria-label="OUT-4"
     transform="matrix(240731.04,0,0,240731.04,-20601362,68660434)"
     id="flowRoot18197"
     style="font-weight:500;line-height:0.01%;font-family:'Atari ST 8x16 System Font';-inkscape-font-specification:'Atari ST 8x16 System Font Medium';letter-spacing:0px;word-spacing:0px;display:inline;fill:#ffffff;stroke-width:1px">
    <path
       d="m 312.1875,107.2832 v -0.54687 h 2.1875 2.1875 v 0.54687 0.54688 h 0.54687 0.54688 v 5.46875 5.46875 h -0.54688 -0.54687 v 0.54687 0.54688 h -2.1875 -2.1875 v -0.54688 -0.54687 h -0.54688 -0.54687 v -5.46875 -5.46875 h 0.54687 0.54688 z m 3.28125,6.01563 v -4.375 h -1.09375 -1.09375 v 4.375 4.375 h 1.09375 1.09375 z"
       style="font-size:17.5px;line-height:1.25"
       id="path1989" />
    <path
       d="m 319.84372,112.75195 v -6.01562 h 1.09375 1.09375 v 5.46875 5.46875 h 1.09375 1.09375 v -5.46875 -5.46875 h 1.09375 1.09375 v 6.01562 6.01563 h -0.54688 -0.54687 v 0.54687 0.54688 h -2.1875 -2.1875 v -0.54688 -0.54687 h -0.54688 -0.54687 z"
       style="font-size:17.5px;line-height:1.25"
       id="path1991" />
    <path
       d="m 328.59368,107.83008 v -1.09375 h 3.28125 3.28125 v 1.09375 1.09375 h -1.09375 -1.09375 v 5.46875 5.46875 h -1.09375 -1.09375 v -5.46875 -5.46875 h -1.09375 -1.09375 z"
       style="font-size:17.5px;line-height:1.25"
       id="path1993" />
    <path
       d="m 337.34365,112.20508 v -1.09375 h 3.28125 3.28125 v 1.09375 1.09375 h -3.28125 -3.28125 z"
       style="font-size:17.5px;line-height:1.25"
       id="path1995" />
    <path
       d="m 349.37487,107.83008 v -1.09375 h 1.09375 1.09375 v 4.375 4.375 h 0.54687 0.54688 v 1.09375 1.09375 h -0.54688 -0.54687 v 1.09375 1.09375 h -1.09375 -1.09375 v -1.09375 -1.09375 h -1.64063 -1.64062 v -2.1875 -2.1875 h 0.54687 0.54688 v -1.09375 -1.09375 h 0.54687 0.54688 v -1.09375 -1.09375 h 0.54687 0.54688 z m 0,6.5625 v -1.09375 h -0.54688 -0.54687 v 1.09375 1.09375 h 0.54687 0.54688 z"
       style="font-size:17.5px;line-height:1.25"
       id="path1997" />
  </g>
  <path
     id="circle4006"
     style="fill:#840084;fill-opacity:0;stroke:#840084;stroke-width:120000;stroke-linecap:round;stroke-linejoin:round"
     d="m 41491231,101930140 a 1800000,1800000 0 0 0 1800000,1800000 1800000,1800000 0 0 0 1800000,-1800000 1800000,1800000 0 0 0 -1800000,-1800000 1800000,1800000 0 0 0 -1800000,1800000 z" />
  <path
     style="display:inline;fill:#000080;fill-opacity:1;stroke:#000000;stroke-width:228565;stroke-miterlimit:4;stroke-dasharray:none;stroke-opacity:1"
     d="m 37661031,92774844 h 11260410 v 14767036 H 37661031 Z"
     id="path18156"
     inkscape:connector-curvature="0" />
  <path
     style="display:inline;fill:#00ff00;fill-opacity:1;stroke:#000000;stroke-width:116000;stroke-miterlimit:4;stroke-dasharray:none;stroke-opacity:1"
     d="m 46233291,101930150 a 2942057,2942057 0 0 1 -2942060,2942050 2942057,2942057 0 0 1 -2942050,-2942050 2942057,2942057 0 0 1 2942050,-2942056 2942057,2942057 0 0 1 2942060,2942056 z"
     id="path18158"
     inkscape:connector-curvature="0" />
  <path
     id="ellipse18160"
     style="display:inline;stroke:#000000;stroke-width:39539.6"
     d="m 43771461,101930140 a 480230.25,480230.28 0 0 1 -480230,480230 480230.25,480230.28 0 0 1 -480230,-480230 480230.25,480230.28 0 0 1 480230,-480230 480230.25,480230.28 0 0 1 480230,480230 z" />
  <g
     aria-label="OUT-3"
     transform="matrix(240731.04,0,0,240731.04,-36601362,68604324)"
     id="flowRoot18168"
     style="font-weight:500;line-height:0.01%;font-family:'Atari ST 8x16 System Font';-inkscape-font-specification:'Atari ST 8x16 System Font Medium';letter-spacing:0px;word-spacing:0px;display:inline;fill:#ffffff;stroke-width:1px">
    <path
       d="m 312.1875,107.2832 v -0.54687 h 2.1875 2.1875 v 0.54687 0.54688 h 0.54687 0.54688 v 5.46875 5.46875 h -0.54688 -0.54687 v 0.54687 0.54688 h -2.1875 -2.1875 v -0.54688 -0.54687 h -0.54688 -0.54687 v -5.46875 -5.46875 h 0.54687 0.54688 z m 3.28125,6.01563 v -4.375 h -1.09375 -1.09375 v 4.375 4.375 h 1.09375 1.09375 z"
       style="font-size:17.5px;line-height:1.25"
       id="path1968" />
    <path
       d="m 319.84372,112.75195 v -6.01562 h 1.09375 1.09375 v 5.46875 5.46875 h 1.09375 1.09375 v -5.46875 -5.46875 h 1.09375 1.09375 v 6.01562 6.01563 h -0.54688 -0.54687 v 0.54687 0.54688 h -2.1875 -2.1875 v -0.54688 -0.54687 h -0.54688 -0.54687 z"
       style="font-size:17.5px;line-height:1.25"
       id="path1970" />
    <path
       d="m 328.59368,107.83008 v -1.09375 h 3.28125 3.28125 v 1.09375 1.09375 h -1.09375 -1.09375 v 5.46875 5.46875 h -1.09375 -1.09375 v -5.46875 -5.46875 h -1.09375 -1.09375 z"
       style="font-size:17.5px;line-height:1.25"
       id="path1972" />
    <path
       d="m 337.34365,112.20508 v -1.09375 h 3.28125 3.28125 v 1.09375 1.09375 h -3.28125 -3.28125 z"
       style="font-size:17.5px;line-height:1.25"
       id="path1974" />
    <path
       d="m 346.09362,107.83008 v -1.09375 h 3.28125 3.28125 v 1.09375 1.09375 h -0.54688 -0.54687 v 1.09375 1.09375 h -0.54688 -0.54687 v 1.09375 1.09375 h 0.54687 0.54688 v 1.09375 1.09375 h 0.54687 0.54688 v 1.64062 1.64063 h -0.54688 -0.54687 v 0.54687 0.54688 h -2.1875 -2.1875 v -0.54688 -0.54687 h -0.54688 -0.54687 v -1.64063 -1.64062 h 1.09375 1.09375 v 1.09375 1.09375 h 1.09375 1.09375 v -1.09375 -1.09375 h -0.54688 -0.54687 v -1.09375 -1.09375 h -0.54688 -0.54687 v -1.09375 -1.09375 h 0.54687 0.54688 v -1.09375 -1.09375 h -1.64063 -1.64062 z"
       style="font-size:17.5px;line-height:1.25"
       id="path1976" />
  </g>
  <path
     id="circle3970"
     style="fill:#840084;fill-opacity:0;stroke:#840084;stroke-width:120000;stroke-linecap:round;stroke-linejoin:round"
     d="m 25491231,101930140 a 1800000,1800000 0 0 0 1800000,1800000 1800000,1800000 0 0 0 1800000,-1800000 1800000,1800000 0 0 0 -1800000,-1800000 1800000,1800000 0 0 0 -1800000,1800000 z" />
  <path
     style="display:inline;fill:#000080;fill-opacity:1;stroke:#000000;stroke-width:228565;stroke-miterlimit:4;stroke-dasharray:none;stroke-opacity:1"
     d="m 21654981,92830954 h 11260410 v 14767036 H 21654981 Z"
     id="path18127"
     inkscape:connector-curvature="0" />
  <path
     style="display:inline;fill:#00ff00;fill-opacity:1;stroke:#000000;stroke-width:116000;stroke-miterlimit:4;stroke-dasharray:none;stroke-opacity:1"
     d="m 30233291,101930150 a 2942057,2942057 0 0 1 -2942060,2942050 2942057,2942057 0 0 1 -2942050,-2942050 2942057,2942057 0 0 1 2942050,-2942056 2942057,2942057 0 0 1 2942060,2942056 z"
     id="path18129"
     inkscape:connector-curvature="0" />
  <path
     id="ellipse18131"
     style="display:inline;stroke:#000000;stroke-width:39539.6"
     d="m 27771461,101930140 a 480230.25,480230.28 0 0 1 -480230,480230 480230.25,480230.28 0 0 1 -480230,-480230 480230.25,480230.28 0 0 1 480230,-480230 480230.25,480230.28 0 0 1 480230,480230 z" />
  <g
     aria-label="OUT-2"
     transform="matrix(240731.04,0,0,240731.04,-52429597,68660434)"
     id="flowRoot18139"
     style="font-weight:500;line-height:0.01%;font-family:'Atari ST 8x16 System Font';-inkscape-font-specification:'Atari ST 8x16 System Font Medium';letter-spacing:0px;word-spacing:0px;display:inline;fill:#ffffff;stroke-width:1px">
    <path
       d="m 312.1875,107.2832 v -0.54687 h 2.1875 2.1875 v 0.54687 0.54688 h 0.54687 0.54688 v 5.46875 5.46875 h -0.54688 -0.54687 v 0.54687 0.54688 h -2.1875 -2.1875 v -0.54688 -0.54687 h -0.54688 -0.54687 v -5.46875 -5.46875 h 0.54687 0.54688 z m 3.28125,6.01563 v -4.375 h -1.09375 -1.09375 v 4.375 4.375 h 1.09375 1.09375 z"
       style="font-size:17.5px;line-height:1.25"
       id="path1947" />
    <path
       d="m 319.84372,112.75195 v -6.01562 h 1.09375 1.09375 v 5.46875 5.46875 h 1.09375 1.09375 v -5.46875 -5.46875 h 1.09375 1.09375 v 6.01562 6.01563 h -0.54688 -0.54687 v 0.54687 0.54688 h -2.1875 -2.1875 v -0.54688 -0.54687 h -0.54688 -0.54687 z"
       style="font-size:17.5px;line-height:1.25"
       id="path1949" />
    <path
       d="m 328.59368,107.83008 v -1.09375 h 3.28125 3.28125 v 1.09375 1.09375 h -1.09375 -1.09375 v 5.46875 5.46875 h -1.09375 -1.09375 v -5.46875 -5.46875 h -1.09375 -1.09375 z"
       style="font-size:17.5px;line-height:1.25"
       id="path1951" />
    <path
       d="m 337.34365,112.20508 v -1.09375 h 3.28125 3.28125 v 1.09375 1.09375 h -3.28125 -3.28125 z"
       style="font-size:17.5px;line-height:1.25"
       id="path1953" />
    <path
       d="m 347.18737,107.2832 v -0.54687 h 2.1875 2.1875 v 0.54687 0.54688 h 0.54687 0.54688 v 1.64062 1.64063 h -0.54688 -0.54687 v 1.09375 1.09375 h -0.54688 -0.54687 v 1.09375 1.09375 h -0.54688 -0.54687 v 1.09375 1.09375 h 1.64062 1.64063 v 1.09375 1.09375 h -3.28125 -3.28125 v -1.09375 -1.09375 h 0.54687 0.54688 v -1.09375 -1.09375 h 0.54687 0.54688 v -1.09375 -1.09375 h 0.54687 0.54688 v -1.09375 -1.09375 h 0.54687 0.54688 v -1.09375 -1.09375 h -1.09375 -1.09375 v 1.09375 1.09375 h -1.09375 -1.09375 v -1.64063 -1.64062 h 0.54687 0.54688 z"
       style="font-size:17.5px;line-height:1.25"
       id="path1955" />
  </g>
  <g
     id="g17140"
     transform="matrix(282222.23,0,0,282222.23,-94046677,-247040840)"
     style="display:inline">
    <path
       style="fill:#00ff00;fill-opacity:1;stroke:#000000;stroke-width:0.411024;stroke-miterlimit:4;stroke-dasharray:none;stroke-opacity:1"
       d="m 461.62192,1170.6058 a 10.424611,10.424611 0 0 1 -10.42461,10.4246 10.424611,10.424611 0 0 1 -10.42462,-10.4246 10.424611,10.424611 0 0 1 10.42462,-10.4246 10.424611,10.424611 0 0 1 10.42461,10.4246 z"
       id="path17136"
       inkscape:connector-curvature="0" />
    <path
       id="ellipse17138"
       style="stroke:#000000;stroke-width:0.140101"
       d="m 452.8989,1170.6057 a 1.7016032,1.7016033 0 0 1 -1.7016,1.7016 1.7016032,1.7016033 0 0 1 -1.70161,-1.7016 1.7016032,1.7016033 0 0 1 1.70161,-1.7016 1.7016032,1.7016033 0 0 1 1.7016,1.7016 z" />
  </g>
  <g
     id="g17134"
     transform="matrix(282222.23,0,0,282222.23,-94046677,-266040840)"
     style="display:inline">
    <path
       style="fill:#00ff00;fill-opacity:1;stroke:#000000;stroke-width:0.411024;stroke-miterlimit:4;stroke-dasharray:none;stroke-opacity:1"
       d="m 461.62192,1170.6058 a 10.424611,10.424611 0 0 1 -10.42461,10.4246 10.424611,10.424611 0 0 1 -10.42462,-10.4246 10.424611,10.424611 0 0 1 10.42462,-10.4246 10.424611,10.424611 0 0 1 10.42461,10.4246 z"
       id="path17130"
       inkscape:connector-curvature="0" />
    <path
       id="ellipse17132"
       style="stroke:#000000;stroke-width:0.140101"
       d="m 452.8989,1170.6057 a 1.7016032,1.7016033 0 0 1 -1.7016,1.7016 1.7016032,1.7016033 0 0 1 -1.70161,-1.7016 1.7016032,1.7016033 0 0 1 1.70161,-1.7016 1.7016032,1.7016033 0 0 1 1.7016,1.7016 z" />
  </g>
  <g
     id="g17128"
     transform="matrix(282222.23,0,0,282222.23,-94046677,-285040840)"
     style="display:inline">
    <path
       style="fill:#00ff00;fill-opacity:1;stroke:#000000;stroke-width:0.411024;stroke-miterlimit:4;stroke-dasharray:none;stroke-opacity:1"
       d="m 461.62192,1170.6058 a 10.424611,10.424611 0 0 1 -10.42461,10.4246 10.424611,10.424611 0 0 1 -10.42462,-10.4246 10.424611,10.424611 0 0 1 10.42462,-10.4246 10.424611,10.424611 0 0 1 10.42461,10.4246 z"
       id="path17124"
       inkscape:connector-curvature="0" />
    <path
       id="ellipse17126"
       style="stroke:#000000;stroke-width:0.140101"
       d="m 452.8989,1170.6057 a 1.7016032,1.7016033 0 0 1 -1.7016,1.7016 1.7016032,1.7016033 0 0 1 -1.70161,-1.7016 1.7016032,1.7016033 0 0 1 1.70161,-1.7016 1.7016032,1.7016033 0 0 1 1.7016,1.7016 z" />
  </g>
  <g
     id="g17122"
     transform="matrix(282222.23,0,0,282222.23,-94046677,-304040840)"
     style="display:inline">
    <path
       style="fill:#00ff00;fill-opacity:1;stroke:#000000;stroke-width:0.411024;stroke-miterlimit:4;stroke-dasharray:none;stroke-opacity:1"
       d="m 461.62192,1170.6058 a 10.424611,10.424611 0 0 1 -10.42461,10.4246 10.424611,10.424611 0 0 1 -10.42462,-10.4246 10.424611,10.424611 0 0 1 10.42462,-10.4246 10.424611,10.424611 0 0 1 10.42461,10.4246 z"
       id="path17118"
       inkscape:connector-curvature="0" />
    <path
       id="ellipse17120"
       style="stroke:#000000;stroke-width:0.140101"
       d="m 452.8989,1170.6057 a 1.7016032,1.7016033 0 0 1 -1.7016,1.7016 1.7016032,1.7016033 0 0 1 -1.70161,-1.7016 1.7016032,1.7016033 0 0 1 1.70161,-1.7016 1.7016032,1.7016033 0 0 1 1.7016,1.7016 z" />
  </g>
  <g
     id="g17116"
     transform="matrix(282222.23,0,0,282222.23,-116046680,-247040840)"
     style="display:inline">
    <path
       style="fill:#00ff00;fill-opacity:1;stroke:#000000;stroke-width:0.411024;stroke-miterlimit:4;stroke-dasharray:none;stroke-opacity:1"
       d="m 461.62192,1170.6058 a 10.424611,10.424611 0 0 1 -10.42461,10.4246 10.424611,10.424611 0 0 1 -10.42462,-10.4246 10.424611,10.424611 0 0 1 10.42462,-10.4246 10.424611,10.424611 0 0 1 10.42461,10.4246 z"
       id="path17112"
       inkscape:connector-curvature="0" />
    <path
       id="ellipse17114"
       style="stroke:#000000;stroke-width:0.140101"
       d="m 452.8989,1170.6057 a 1.7016032,1.7016033 0 0 1 -1.7016,1.7016 1.7016032,1.7016033 0 0 1 -1.70161,-1.7016 1.7016032,1.7016033 0 0 1 1.70161,-1.7016 1.7016032,1.7016033 0 0 1 1.7016,1.7016 z" />
  </g>
  <g
     id="g17110"
     transform="matrix(282222.23,0,0,282222.23,-116046680,-266040840)"
     style="display:inline">
    <path
       style="fill:#00ff00;fill-opacity:1;stroke:#000000;stroke-width:0.411024;stroke-miterlimit:4;stroke-dasharray:none;stroke-opacity:1"
       d="m 461.62192,1170.6058 a 10.424611,10.424611 0 0 1 -10.42461,10.4246 10.424611,10.424611 0 0 1 -10.42462,-10.4246 10.424611,10.424611 0 0 1 10.42462,-10.4246 10.424611,10.424611 0 0 1 10.42461,10.4246 z"
       id="path17106"
       inkscape:connector-curvature="0" />
    <path
       id="ellipse17108"
       style="stroke:#000000;stroke-width:0.140101"
       d="m 452.8989,1170.6057 a 1.7016032,1.7016033 0 0 1 -1.7016,1.7016 1.7016032,1.7016033 0 0 1 -1.70161,-1.7016 1.7016032,1.7016033 0 0 1 1.70161,-1.7016 1.7016032,1.7016033 0 0 1 1.7016,1.7016 z" />
  </g>
  <g
     id="g17104"
     transform="matrix(282222.23,0,0,282222.23,-116046680,-285040840)"
     style="display:inline">
    <path
       style="fill:#00ff00;fill-opacity:1;stroke:#000000;stroke-width:0.411024;stroke-miterlimit:4;stroke-dasharray:none;stroke-opacity:1"
       d="m 461.62192,1170.6058 a 10.424611,10.424611 0 0 1 -10.42461,10.4246 10.424611,10.424611 0 0 1 -10.42462,-10.4246 10.424611,10.424611 0 0 1 10.42462,-10.4246 10.424611,10.424611 0 0 1 10.42461,10.4246 z"
       id="path17100"
       inkscape:connector-curvature="0" />
    <path
       id="ellipse17102"
       style="stroke:#000000;stroke-width:0.140101"
       d="m 452.8989,1170.6057 a 1.7016032,1.7016033 0 0 1 -1.7016,1.7016 1.7016032,1.7016033 0 0 1 -1.70161,-1.7016 1.7016032,1.7016033 0 0 1 1.70161,-1.7016 1.7016032,1.7016033 0 0 1 1.7016,1.7016 z" />
  </g>
  <g
     id="g17098"
     transform="matrix(282222.23,0,0,282222.23,-116046680,-304040840)"
     style="display:inline">
    <path
       style="fill:#00ff00;fill-opacity:1;stroke:#000000;stroke-width:0.411024;stroke-miterlimit:4;stroke-dasharray:none;stroke-opacity:1"
       d="m 461.62192,1170.6058 a 10.424611,10.424611 0 0 1 -10.42461,10.4246 10.424611,10.424611 0 0 1 -10.42462,-10.4246 10.424611,10.424611 0 0 1 10.42462,-10.4246 10.424611,10.424611 0 0 1 10.42461,10.4246 z"
       id="path17094"
       inkscape:connector-curvature="0" />
    <path
       id="ellipse17096"
       style="stroke:#000000;stroke-width:0.140101"
       d="m 452.8989,1170.6057 a 1.7016032,1.7016033 0 0 1 -1.7016,1.7016 1.7016032,1.7016033 0 0 1 -1.70161,-1.7016 1.7016032,1.7016033 0 0 1 1.70161,-1.7016 1.7016032,1.7016033 0 0 1 1.7016,1.7016 z" />
  </g>
  <path
     id="circle3988"
     style="fill:#840084;fill-opacity:0;stroke:#840084;stroke-width:120000;stroke-linecap:round;stroke-linejoin:round"
     d="m 9491231.5,101930140 a 1800000,1800000 0 0 0 1799999.5,1800000 1800000,1800000 0 0 0 1800000,-1800000 1800000,1800000 0 0 0 -1800000,-1800000 1800000,1800000 0 0 0 -1799999.5,1800000 z" />
  <path
     style="display:inline;fill:#000080;fill-opacity:1;stroke:#000000;stroke-width:228565;stroke-miterlimit:4;stroke-dasharray:none;stroke-opacity:1"
     d="M 5682511.5,92830954 H 16942921 v 14767036 H 5682511.5 Z"
     id="path14649"
     inkscape:connector-curvature="0" />
  <path
     style="display:inline;fill:#00ff00;fill-opacity:1;stroke:#000000;stroke-width:116000;stroke-miterlimit:4;stroke-dasharray:none;stroke-opacity:1"
     d="m 14233291,101930150 a 2942057,2942057 0 0 1 -2942060,2942050 2942057,2942057 0 0 1 -2942049.5,-2942050 2942057,2942057 0 0 1 2942049.5,-2942056 2942057,2942057 0 0 1 2942060,2942056 z"
     id="path14651"
     inkscape:connector-curvature="0" />
  <path
     id="ellipse14653"
     style="display:inline;stroke:#000000;stroke-width:39539.6"
     d="m 11771461,101930140 a 480230.25,480230.28 0 0 1 -480230,480230 480230.25,480230.28 0 0 1 -480230,-480230 480230.25,480230.28 0 0 1 480230,-480230 480230.25,480230.28 0 0 1 480230,480230 z" />
  <g
     aria-label="OUT-1"
     transform="matrix(240731.04,0,0,240731.04,-68402070,68660434)"
     id="flowRoot14667"
     style="font-weight:500;line-height:0.01%;font-family:'Atari ST 8x16 System Font';-inkscape-font-specification:'Atari ST 8x16 System Font Medium';letter-spacing:0px;word-spacing:0px;display:inline;fill:#ffffff;stroke-width:1px">
    <path
       d="m 312.1875,107.2832 v -0.54687 h 2.1875 2.1875 v 0.54687 0.54688 h 0.54687 0.54688 v 5.46875 5.46875 h -0.54688 -0.54687 v 0.54687 0.54688 h -2.1875 -2.1875 v -0.54688 -0.54687 h -0.54688 -0.54687 v -5.46875 -5.46875 h 0.54687 0.54688 z m 3.28125,6.01563 v -4.375 h -1.09375 -1.09375 v 4.375 4.375 h 1.09375 1.09375 z"
       style="font-size:17.5px;line-height:1.25"
       id="path1914" />
    <path
       d="m 319.84372,112.75195 v -6.01562 h 1.09375 1.09375 v 5.46875 5.46875 h 1.09375 1.09375 v -5.46875 -5.46875 h 1.09375 1.09375 v 6.01562 6.01563 h -0.54688 -0.54687 v 0.54687 0.54688 h -2.1875 -2.1875 v -0.54688 -0.54687 h -0.54688 -0.54687 z"
       style="font-size:17.5px;line-height:1.25"
       id="path1916" />
    <path
       d="m 328.59368,107.83008 v -1.09375 h 3.28125 3.28125 v 1.09375 1.09375 h -1.09375 -1.09375 v 5.46875 5.46875 h -1.09375 -1.09375 v -5.46875 -5.46875 h -1.09375 -1.09375 z"
       style="font-size:17.5px;line-height:1.25"
       id="path1918" />
    <path
       d="m 337.34365,112.20508 v -1.09375 h 3.28125 3.28125 v 1.09375 1.09375 h -3.28125 -3.28125 z"
       style="font-size:17.5px;line-height:1.25"
       id="path1920" />
    <path
       d="m 348.28112,107.83008 v -1.09375 h 1.09375 1.09375 v 5.46875 5.46875 h 1.09375 1.09375 v 1.09375 1.09375 h -3.28125 -3.28125 v -1.09375 -1.09375 h 1.09375 1.09375 v -3.28125 -3.28125 h -0.54688 -0.54687 v -1.09375 -1.09375 h 0.54687 0.54688 z"
       style="font-size:17.5px;line-height:1.25"
       id="path1922" />
  </g>
  <g
     aria-label="4 VCA"
     transform="matrix(282222.23,0,0,282222.23,-58247553,-27434009)"
     id="flowRoot5589-0-3"
     style="font-weight:500;line-height:0.01%;font-family:'Atari ST 8x16 System Font';-inkscape-font-specification:'Atari ST 8x16 System Font Medium';letter-spacing:0px;word-spacing:0px;display:inline;stroke-width:1px">
    <path
       d="m 314.375,107.83008 v -1.09375 h 1.09375 1.09375 v 4.375 4.375 h 0.54687 0.54688 v 1.09375 1.09375 h -0.54688 -0.54687 v 1.09375 1.09375 h -1.09375 -1.09375 v -1.09375 -1.09375 h -1.64063 -1.64062 v -2.1875 -2.1875 h 0.54687 0.54688 v -1.09375 -1.09375 h 0.54687 0.54688 v -1.09375 -1.09375 h 0.54687 0.54688 z m 0,6.5625 v -1.09375 h -0.54688 -0.54687 v 1.09375 1.09375 h 0.54687 0.54688 z"
       style="font-size:17.5px;line-height:1.25"
       id="path1883" />
    <path
       d="m 328.59368,111.11133 v -4.375 h 1.09375 1.09375 v 4.375 4.375 h 1.09375 1.09375 v -4.375 -4.375 h 1.09375 1.09375 v 4.375 4.375 h -0.54687 -0.54688 v 1.09375 1.09375 h -0.54687 -0.54688 v 1.09375 1.09375 h -1.09375 -1.09375 v -1.09375 -1.09375 h -0.54687 -0.54688 v -1.09375 -1.09375 h -0.54687 -0.54688 z"
       style="font-size:17.5px;line-height:1.25"
       id="path1885" />
    <path
       d="m 338.4374,107.2832 v -0.54687 h 2.1875 2.1875 v 0.54687 0.54688 h 0.54688 0.54687 v 1.64062 1.64063 h -1.09375 -1.09375 v -1.09375 -1.09375 h -1.09375 -1.09375 v 4.375 4.375 h 1.09375 1.09375 v -1.09375 -1.09375 h 1.09375 1.09375 v 1.64062 1.64063 h -0.54687 -0.54688 v 0.54687 0.54688 h -2.1875 -2.1875 v -0.54688 -0.54687 h -0.54687 -0.54688 v -5.46875 -5.46875 h 0.54688 0.54687 z"
       style="font-size:17.5px;line-height:1.25"
       id="path1887" />
    <path
       d="m 348.28112,107.2832 v -0.54687 h 1.09375 1.09375 v 0.54687 0.54688 h 0.54687 0.54688 v 0.54687 0.54688 h 0.54687 0.54688 v 5.46875 5.46875 h -1.09375 -1.09375 v -2.1875 -2.1875 h -1.09375 -1.09375 v 2.1875 2.1875 h -1.09375 -1.09375 v -5.46875 -5.46875 h 0.54687 0.54688 v -0.54688 -0.54687 h 0.54687 0.54688 z m 2.1875,4.375 v -1.64062 h -1.09375 -1.09375 v 1.64062 1.64063 h 1.09375 1.09375 z"
       style="font-size:17.5px;line-height:1.25"
       id="path1889" />
  </g>
  <g
     aria-label="IN"
     transform="matrix(282222.23,0,0,282222.23,-78667098,-18690927)"
     id="flowRoot5589-0-6-1"
     style="font-weight:500;line-height:0.01%;font-family:'Atari ST 8x16 System Font';-inkscape-font-specification:'Atari ST 8x16 System Font Medium';letter-spacing:0px;word-spacing:0px;display:inline;stroke-width:1px">
    <path
       d="m 311.09375,107.83008 v -1.09375 h 3.28125 3.28125 v 1.09375 1.09375 h -1.09375 -1.09375 v 4.375 4.375 h 1.09375 1.09375 v 1.09375 1.09375 h -3.28125 -3.28125 v -1.09375 -1.09375 h 1.09375 1.09375 v -4.375 -4.375 h -1.09375 -1.09375 z"
       style="font-size:17.5px;line-height:1.25"
       id="path1878" />
    <path
       d="m 319.84372,113.29883 v -6.5625 h 1.09375 1.09375 v 1.64062 1.64063 h 0.54687 0.54688 v 1.09375 1.09375 h 0.54687 0.54688 v -2.73438 -2.73437 h 1.09375 1.09375 v 6.5625 6.5625 h -1.09375 -1.09375 v -1.64063 -1.64062 h -0.54688 -0.54687 v -1.09375 -1.09375 h -0.54688 -0.54687 v 2.73437 2.73438 h -1.09375 -1.09375 z"
       style="font-size:17.5px;line-height:1.25"
       id="path1880" />
  </g>
  <g
     aria-label="1"
     transform="matrix(282222.23,0,0,282222.23,-65863956,-5645305.5)"
     id="flowRoot5589-2-0-6"
     style="font-weight:500;line-height:0.01%;font-family:'Atari ST 8x16 System Font';-inkscape-font-specification:'Atari ST 8x16 System Font Medium';letter-spacing:0px;word-spacing:0px;display:inline;stroke-width:1px">
    <path
       d="m 313.28125,107.83008 v -1.09375 h 1.09375 1.09375 v 5.46875 5.46875 h 1.09375 1.09375 v 1.09375 1.09375 h -3.28125 -3.28125 v -1.09375 -1.09375 h 1.09375 1.09375 v -3.28125 -3.28125 h -0.54688 -0.54687 v -1.09375 -1.09375 h 0.54687 0.54688 z"
       style="font-size:17.5px;line-height:1.25"
       id="path1875" />
  </g>
  <g
     aria-label="3"
     transform="matrix(282222.23,0,0,282222.23,-65863956,32354694)"
     id="flowRoot5589-2-7-4-0"
     style="font-weight:500;line-height:0.01%;font-family:'Atari ST 8x16 System Font';-inkscape-font-specification:'Atari ST 8x16 System Font Medium';letter-spacing:0px;word-spacing:0px;display:inline;stroke-width:1px">
    <path
       d="m 311.09375,107.83008 v -1.09375 h 3.28125 3.28125 v 1.09375 1.09375 h -0.54688 -0.54687 v 1.09375 1.09375 h -0.54688 -0.54687 v 1.09375 1.09375 h 0.54687 0.54688 v 1.09375 1.09375 h 0.54687 0.54688 v 1.64062 1.64063 h -0.54688 -0.54687 v 0.54687 0.54688 h -2.1875 -2.1875 v -0.54688 -0.54687 h -0.54688 -0.54687 v -1.64063 -1.64062 h 1.09375 1.09375 v 1.09375 1.09375 h 1.09375 1.09375 v -1.09375 -1.09375 h -0.54688 -0.54687 v -1.09375 -1.09375 h -0.54688 -0.54687 v -1.09375 -1.09375 h 0.54687 0.54688 v -1.09375 -1.09375 h -1.64063 -1.64062 z"
       style="font-size:17.5px;line-height:1.25"
       id="path1872" />
  </g>
  <g
     aria-label="2"
     transform="matrix(282222.23,0,0,282222.23,-65863956,13354695)"
     id="flowRoot5589-2-1-4-2"
     style="font-weight:500;line-height:0.01%;font-family:'Atari ST 8x16 System Font';-inkscape-font-specification:'Atari ST 8x16 System Font Medium';letter-spacing:0px;word-spacing:0px;display:inline;stroke-width:1px">
    <path
       d="m 312.1875,107.2832 v -0.54687 h 2.1875 2.1875 v 0.54687 0.54688 h 0.54687 0.54688 v 1.64062 1.64063 h -0.54688 -0.54687 v 1.09375 1.09375 h -0.54688 -0.54687 v 1.09375 1.09375 h -0.54688 -0.54687 v 1.09375 1.09375 h 1.64062 1.64063 v 1.09375 1.09375 h -3.28125 -3.28125 v -1.09375 -1.09375 h 0.54687 0.54688 v -1.09375 -1.09375 h 0.54687 0.54688 v -1.09375 -1.09375 h 0.54687 0.54688 v -1.09375 -1.09375 h 0.54687 0.54688 v -1.09375 -1.09375 h -1.09375 -1.09375 v 1.09375 1.09375 h -1.09375 -1.09375 v -1.64063 -1.64062 h 0.54687 0.54688 z"
       style="font-size:17.5px;line-height:1.25"
       id="path1869" />
  </g>
  <g
     aria-label="4"
     transform="matrix(282222.23,0,0,282222.23,-65863956,51354694)"
     id="flowRoot5589-2-2-6-8"
     style="font-weight:500;line-height:0.01%;font-family:'Atari ST 8x16 System Font';-inkscape-font-specification:'Atari ST 8x16 System Font Medium';letter-spacing:0px;word-spacing:0px;display:inline;stroke-width:1px">
    <path
       d="m 314.375,107.83008 v -1.09375 h 1.09375 1.09375 v 4.375 4.375 h 0.54687 0.54688 v 1.09375 1.09375 h -0.54688 -0.54687 v 1.09375 1.09375 h -1.09375 -1.09375 v -1.09375 -1.09375 h -1.64063 -1.64062 v -2.1875 -2.1875 h 0.54687 0.54688 v -1.09375 -1.09375 h 0.54687 0.54688 v -1.09375 -1.09375 h 0.54687 0.54688 z m 0,6.5625 v -1.09375 h -0.54688 -0.54687 v 1.09375 1.09375 h 0.54687 0.54688 z"
       style="font-size:17.5px;line-height:1.25"
       id="path1866" />
  </g>
  <path
     style="display:inline;fill:none;fill-opacity:1;stroke:#000000;stroke-width:269163;stroke-miterlimit:4;stroke-dasharray:none;stroke-opacity:1"
     d="M 134581.5,134581.5 H 70665421 V 128365820 H 134581.5 Z"
     id="rect4136-3-3"
     inkscape:connector-curvature="0" />
  <path
     inkscape:connector-curvature="0"
     id="path6819"
     d="M 128861.5,9154130.5 H 70667021"
     style="display:inline;fill:none;fill-opacity:1;fill-rule:evenodd;stroke:#ff0000;stroke-width:374089px;stroke-linecap:butt;stroke-linejoin:miter;stroke-opacity:1" />
  <path
     inkscape:connector-curvature="0"
     id="path6821"
     d="M 117581.5,119381130 H 70684921"
     style="display:inline;fill:none;fill-rule:evenodd;stroke:#ff0000;stroke-width:374495px;stroke-linecap:butt;stroke-linejoin:miter;stroke-opacity:1" />
  <path
     id="rect3042"
     style="display:inline;fill:#0000ee;fill-opacity:0;stroke:#00ee00;stroke-width:252036"
     d="m 6358461.5,123955570 h 2017880 c 679950,0 1227340,547390 1227340,1227340 v 385840 c 0,679950 -547390,1227340 -1227340,1227340 h -2017880 c -679950,0 -1227350,-547390 -1227350,-1227340 v -385840 c 0,-679950 547400,-1227340 1227350,-1227340 z" />
  <path
     id="rect3044"
     style="display:inline;fill:#0000ee;fill-opacity:0;stroke:#00ee00;stroke-width:252036"
     d="m 6358451.5,1588283.5 h 2017880 c 679950,0 1227350,547396 1227350,1227344 v 385836 c 0,679948 -547400,1227344 -1227350,1227344 h -2017880 c -679950,0 -1227340,-547396 -1227340,-1227344 v -385836 c 0,-679948 547390,-1227344 1227340,-1227344 z" />
  <g
     aria-label="CV"
     transform="matrix(282222.23,0,0,282222.23,-56550124,-18690927)"
     id="flowRoot13649"
     style="font-weight:500;line-height:0.01%;font-family:'Atari ST 8x16 System Font';-inkscape-font-specification:'Atari ST 8x16 System Font Medium';letter-spacing:0px;word-spacing:0px;display:inline;stroke-width:1px">
    <path
       d="m 312.1875,107.2832 v -0.54687 h 2.1875 2.1875 v 0.54687 0.54688 h 0.54687 0.54688 v 1.64062 1.64063 h -1.09375 -1.09375 v -1.09375 -1.09375 h -1.09375 -1.09375 v 4.375 4.375 h 1.09375 1.09375 v -1.09375 -1.09375 h 1.09375 1.09375 v 1.64062 1.64063 h -0.54688 -0.54687 v 0.54687 0.54688 h -2.1875 -2.1875 v -0.54688 -0.54687 h -0.54688 -0.54687 v -5.46875 -5.46875 h 0.54687 0.54688 z"
       style="font-size:17.5px;line-height:1.25"
       id="path1859" />
    <path
       d="m 319.84372,111.11133 v -4.375 h 1.09375 1.09375 v 4.375 4.375 h 1.09375 1.09375 v -4.375 -4.375 h 1.09375 1.09375 v 4.375 4.375 h -0.54688 -0.54687 v 1.09375 1.09375 h -0.54688 -0.54687 v 1.09375 1.09375 h -1.09375 -1.09375 v -1.09375 -1.09375 h -0.54688 -0.54687 v -1.09375 -1.09375 h -0.54688 -0.54687 z"
       style="font-size:17.5px;line-height:1.25"
       id="path1861" />
  </g>
  <path
     id="rect23205"
     style="display:inline;fill:#0000ee;fill-opacity:0;stroke:#00ee00;stroke-width:252036"
     d="m 61921121,1588283.5 h 2017880 c 679950,0 1227350,547396 1227350,1227344 v 385836 c 0,679948 -547400,1227344 -1227350,1227344 h -2017880 c -679940,0 -1227340,-547396 -1227340,-1227344 v -385836 c 0,-679948 547400,-1227344 1227340,-1227344 z" />
  <path
     id="rect23259"
     style="display:inline;fill:#0000ee;fill-opacity:0;stroke:#00ee00;stroke-width:252036"
     d="m 61921121,123955570 h 2017880 c 679950,0 1227350,547390 1227350,1227340 v 385840 c 0,679950 -547400,1227340 -1227350,1227340 h -2017880 c -679940,0 -1227340,-547390 -1227340,-1227340 v -385840 c 0,-679950 547400,-1227340 1227340,-1227340 z" />
  <g
     aria-label="CV"
     transform="matrix(282222.23,0,0,282222.23,-31679275,-18690927)"
     id="flowRoot25017"
     style="font-weight:500;line-height:0.01%;font-family:'Atari ST 8x16 System Font';-inkscape-font-specification:'Atari ST 8x16 System Font Medium';letter-spacing:0px;word-spacing:0px;display:inline;stroke-width:1px">
    <path
       d="m 312.1875,107.2832 v -0.54687 h 2.1875 2.1875 v 0.54687 0.54688 h 0.54687 0.54688 v 1.64062 1.64063 h -1.09375 -1.09375 v -1.09375 -1.09375 h -1.09375 -1.09375 v 4.375 4.375 h 1.09375 1.09375 v -1.09375 -1.09375 h 1.09375 1.09375 v 1.64062 1.64063 h -0.54688 -0.54687 v 0.54687 0.54688 h -2.1875 -2.1875 v -0.54688 -0.54687 h -0.54688 -0.54687 v -5.46875 -5.46875 h 0.54687 0.54688 z"
       style="font-size:17.5px;line-height:1.25"
       id="path1852" />
    <path
       d="m 319.84372,111.11133 v -4.375 h 1.09375 1.09375 v 4.375 4.375 h 1.09375 1.09375 v -4.375 -4.375 h 1.09375 1.09375 v 4.375 4.375 h -0.54688 -0.54687 v 1.09375 1.09375 h -0.54688 -0.54687 v 1.09375 1.09375 h -1.09375 -1.09375 v -1.09375 -1.09375 h -0.54688 -0.54687 v -1.09375 -1.09375 h -0.54688 -0.54687 z"
       style="font-size:17.5px;line-height:1.25"
       id="path1854" />
  </g>
  <g
     id="g1772"
     transform="matrix(13149.141,0,0,13149.141,20538761,120191780)">
    <flowRoot
       xml:space="preserve"
       id="flowRoot4834"
       style="font-style:normal;font-variant:normal;font-weight:500;font-stretch:normal;line-height:0.01%;font-family:'Atari ST 8x16 System Font';-inkscape-font-specification:'Atari ST 8x16 System Font, Medium';text-align:start;letter-spacing:0px;word-spacing:0px;writing-mode:lr-tb;text-anchor:start;fill:#000000;fill-opacity:1;stroke:none;stroke-width:1px;stroke-linecap:butt;stroke-linejoin:miter;stroke-opacity:1"
       transform="matrix(14.691612,0,0,14.691612,3282.7718,6376.6299)"><flowRegion
         id="flowRegion4836"><rect
           id="rect4838"
           width="1049.3464"
           height="379.00925"
           x="-223.44574"
           y="-439.15555" /></flowRegion><flowPara
         id="flowPara4840"
         style="font-size:40px;line-height:1.25">M</flowPara></flowRoot>
    <text
       xml:space="preserve"
       style="font-style:normal;font-variant:normal;font-weight:500;font-stretch:normal;line-height:0%;font-family:'Atari ST 8x16 System Font';-inkscape-font-specification:'Atari ST 8x16 System Font, Medium';text-align:start;letter-spacing:0px;word-spacing:0px;writing-mode:lr-tb;text-anchor:start;fill:#000000;fill-opacity:1;stroke:none;stroke-width:1px;stroke-linecap:butt;stroke-linejoin:miter;stroke-opacity:1"
       x="2091.9456"
       y="338.24655"
       id="text4842"><tspan
         sodipodi:role="line"
         id="tspan4844"
         x="2091.9456"
         y="338.24655"
         style="font-size:385.068px;line-height:1.25">+</tspan></text>
    <text
       xml:space="preserve"
       style="font-style:normal;font-variant:normal;font-weight:500;font-stretch:normal;line-height:0%;font-family:'Atari ST 8x16 System Font';-inkscape-font-specification:'Atari ST 8x16 System Font, Medium';text-align:start;letter-spacing:0px;word-spacing:0px;writing-mode:lr-tb;text-anchor:start;fill:#000000;fill-opacity:1;stroke:none;stroke-width:1px;stroke-linecap:butt;stroke-linejoin:miter;stroke-opacity:1"
       x="601.03961"
       y="512.38098"
       id="text4850"><tspan
         sodipodi:role="line"
         id="tspan4852"
         x="601.03961"
         y="512.38098"
         style="font-size:587.664px;line-height:1.25">DULAR</tspan></text>
    <path
       d="m 333.90661,583.97643 c -6.87639,0.5608 -12.90491,-5.2173 -13.92424,-13.3458 -0.25398,-2.0253 -0.60879,-4.5362 -0.78849,-5.5798 -1.21735,-7.0699 -1.28057,-18.0152 -0.15641,-27.083 1.89285,-15.26822 4.26467,-29.9372 6.53931,-40.44367 2.79955,-12.93098 14.2787,-57.65275 16.75921,-65.29238 1.45683,-4.48684 7.16466,-22.53701 7.72622,-24.43301 0.20867,-0.70452 1.44205,-4.25491 2.74089,-7.88976 1.29881,-3.63486 2.59278,-7.41733 2.87546,-8.40551 0.43235,-1.51142 -0.95953,-4.19271 -8.76629,-16.88719 -9.40421,-15.88713 -13.13574,-24.49491 -17.46855,-40.23831 -0.92686,-3.51628 -1.20193,-6.8624 -2.1837,-20.23412 0.13895,-6.16134 -0.66366,-13.79062 0.4383,-20.29016 1.4225,-13.91665 5.49086,-26.59472 9.01402,-38.96158 6.18191,-19.54808 21.09069,-44.02814 33.95543,-57.6149 3.58346,-5.20569 19.8005,-18.22829 30.23237,-24.45624 9.30807,-5.0537 33.10368,-16.48947 41.98451,-16.63232 29.32026,-7.2249 39.2708,-4.00762 67.18603,5.57574 11.7381,5.80751 16.77547,15.90079 16.09516,20.36114 -1.03596,6.07571 -4.25811,17.0049 -6.98011,25.22701 -27.18521,74.26796 -60.0505,156.15964 -97.44911,215.92737 -3.73968,3.51268 -11.71508,1.95115 -15.74184,0.62618 -7.15152,-2.61837 -25.87522,-12.26521 -26.78017,-13.79769 -0.18221,-0.30856 -1.3709,-1.03324 -2.64153,-1.6104 l -2.31022,-1.04939 -1.85003,8.23824 c -3.4259,15.25553 -5.48179,26.02488 -6.23239,32.64674 -1.04417,8.79621 -2.16059,18.89493 0.0787,26.7372 2.52558,9.88091 5.23028,12.4368 14.63103,7.66138 12.95999,-9.05224 19.43588,-17.58003 28.28216,-28.82945 10.84891,-13.79116 16.05422,-23.0275 24.61597,-37.45861 14.56891,-24.75278 31.98622,-58.70498 43.49819,-82.74559 11.0685,-22.63918 20.80245,-47.62507 28.72512,-67.62556 11.52538,-31.69863 23.58403,-66.74005 31.648,-96.51987 5.34487,-21.02488 8.01252,-37.87707 8.21938,-51.92428 0.7294,-6.31107 0.57936,-16.35553 -5.54021,-19.6104 -3.5033,-1.7242 -8.34649,-0.0804 -14.90119,5.05755 -3.09047,2.42247 -6.133,5.12712 -6.76116,6.01035 -0.62817,0.88323 -1.91998,2.27987 -2.87068,3.10365 -1.85929,1.6111 -6.77299,7.34278 -9.5929,11.18986 -8.36373,11.41033 -11.81924,15.55968 -12.75684,15.31829 -5.75036,-4.27544 -11.10374,-10.74356 -14.87874,-15.24361 -1.49449,-2.56033 -1.37902,-3.18332 1.60496,-8.63974 C 501.38935,79.84446 523.0851,47.47044 550.4656,16.0101 558.49144,8.09776 571.16813,0.21165 576.20135,0 c 10.0007,0.57545 14.10619,9.3935 15.42619,17.78256 0.92485,6.14712 1.11216,18.72268 0.38512,25.84897 -1.56179,15.30823 -3.32806,27.48914 -5.80882,40.05998 -7.65064,38.92945 -21.98927,79.38781 -32.35803,114.6801 l 6.15203,8.12477 c 12.44894,16.44083 21.17616,40.41871 23.01424,63.23139 0.65422,8.12079 0.75882,14.72006 0.30366,19.15697 -2.25942,22.02119 -2.51964,23.37314 -7.83239,40.68468 -1.46595,7.64826 -5.18353,13.19369 -7.80733,19.65327 -2.09787,5.20457 -3.73665,8.03966 -10.70728,18.52354 -6.86637,10.32708 -6.9969,10.50065 -12.29429,16.35017 -13.09311,14.45776 -17.94507,18.48556 -33.31439,27.65561 -13.80984,8.23956 -19.60959,10.84513 -30.15258,13.54612 -11.73886,3.00738 -16.68826,3.93792 -26.06971,4.90139 -2.90971,0.29882 -3.26575,0.55129 -4.42028,3.13446 -3.83185,7.22742 -7.89563,15.0507 -11.67535,21.44917 -3.3735,5.64018 -6.16952,10.47298 -9.16961,15.84931 -1.18074,2.11594 -3.88894,6.68947 -6.01822,10.16341 -8.77681,14.31942 -13.58625,22.04182 -15.30246,24.57077 -2.42724,4.12177 -5.11757,8.23005 -7.59613,11.92528 -5.07144,6.99745 -10.19317,14.52881 -14.99201,21.06521 -3.50132,4.8254 -4.29322,5.83 -6.87183,8.7179 -5.18474,7.0623 -10.37577,12.5753 -14.59236,16.8835 -11.01841,11.2421 -23.5528,19.4438 -30.59293,20.0179 z m 56.065,-71.65616 c 10.86737,-14.76369 15.62547,-22.52358 17.3398,-25.021 -0.44317,-0.11409 -28.30408,35.71092 -31.17239,38.89756 -11.61921,12.9089 -19.80472,18.868 -27.01453,17.6235 -2.47976,-0.428 -7.02294,-3.6315 -8.35912,-5.8943 -5.7888,-16.53136 -4.0812,-33.15631 -1.61234,-49.04222 0.14933,-3.51603 8.8319,-37.4306 8.15272,-38.45995 -0.65779,2.43463 -8.63191,34.23404 -8.91939,35.87787 -2.00445,11.44773 -3.14133,14.02282 -4.11867,25.37335 -0.39566,13.68266 0.95856,19.88685 2.37469,26.34885 -0.27067,0.5152 0.58462,2.7423 1.90064,4.9493 4.85455,8.141 11.90282,7.6188 26.01385,-1.9275 4.5811,-3.5039 22.73879,-24.10556 25.41474,-28.72546 z M 574.12565,85.23148 c 1.42476,-11.09208 1.94822,-18.88312 1.65063,-24.56647 -0.36996,-6.84187 -1.25936,-14.39585 -3.99747,-19.12559 -4.51661,-8.64268 -9.86816,-6.12592 -17.3533,-4.22911 -11.05118,3.06131 -43.39097,50.21927 -42.81962,51.33063 0.24994,0.42326 19.14037,-26.91704 33.31145,-42.1962 10.32134,-10.45741 26.24316,-8.58486 27.63892,6.10786 3.75162,19.87259 -0.57113,35.34289 -2.68253,53.82356 0.66365,1.17105 2.66225,-8.76836 4.25192,-21.14468 z"
       style="fill:#000000"
       id="path3396" />
  </g>
</svg>
