<?xml version="1.0"?>
<!DOCTYPE svg PUBLIC "-//W3C//DTD SVG 1.1//EN" "http://www.w3.org/Graphics/SVG/1.1/DTD/svg11.dtd">
<svg width="217.26mm" height="132.76mm" viewBox="0 0 217.26 132.76" xmlns="http://www.w3.org/2000/svg" version="1.1">
<g id="Sketch" transform="translate(2.130000,130.630000) scale(1,-1)">
<path id="Sketch_w0000"  d="M 0.0 128.5 L 213.0 128.5 L 213.0 0.0 L 0.0 0.0 L 0.0 128.5 " stroke="#000000" stroke-width="0.35 px" style="stroke-width:0.35;stroke-miterlimit:4;stroke-dasharray:none;stroke-linecap:square;fill:none;fill-opacity:1;fill-rule: evenodd"/>
<path id="Sketch_w0001"  d="M 6.5 4.5 A 1.5 1.5 0 1 1 6.5 1.5L 8.5 1.5 A 1.5 1.5 0 1 1 8.5 4.5L 6.5 4.5 " stroke="#000000" stroke-width="0.35 px" style="stroke-width:0.35;stroke-miterlimit:4;stroke-dasharray:none;stroke-linecap:square;fill:none;fill-opacity:1;fill-rule: evenodd"/>
<path id="Sketch_w0002"  d="M 6.5 127.0 A 1.5 1.5 0 1 1 6.5 124L 8.5 124.0 A 1.5 1.5 0 1 1 8.5 127L 6.5 127.0 " stroke="#000000" stroke-width="0.35 px" style="stroke-width:0.35;stroke-miterlimit:4;stroke-dasharray:none;stroke-linecap:square;fill:none;fill-opacity:1;fill-rule: evenodd"/>
<path id="Sketch_w0003"  d="M 204.5 4.5 A 1.5 1.5 0 0 1 204.5 1.5L 206.5 1.4999999999999996 A 1.5 1.5 0 1 1 206.5 4.5L 204.5 4.5 " stroke="#000000" stroke-width="0.35 px" style="stroke-width:0.35;stroke-miterlimit:4;stroke-dasharray:none;stroke-linecap:square;fill:none;fill-opacity:1;fill-rule: evenodd"/>
<path id="Sketch_w0004"  d="M 204.5 127.0 A 1.5 1.5 0 0 1 204.5 124L 206.5 124.0 A 1.5 1.5 0 1 1 206.5 127L 204.5 127.0 " stroke="#000000" stroke-width="0.35 px" style="stroke-width:0.35;stroke-miterlimit:4;stroke-dasharray:none;stroke-linecap:square;fill:none;fill-opacity:1;fill-rule: evenodd"/>
<title>b'Sketch'</title>
</g>
</svg>